<svg width="32" height="32" viewBox="0 0 32 32" xmlns="http://www.w3.org/2000/svg">
  <defs>
    <linearGradient id="greenGradient" x1="0%" y1="0%" x2="100%" y2="100%">
      <stop offset="0%" style="stop-color:#0C610A;stop-opacity:1" />
      <stop offset="100%" style="stop-color:#1a7f18;stop-opacity:1" />
    </linearGradient>
  </defs>
  
  <!-- Light bulb shape -->
  <path d="M16 4 C12 4, 8 7, 8 11 C8 15, 10 17, 11 19 L11 24 C11 25, 12 26, 13 26 L19 26 C20 26, 21 25, 21 24 L21 19 C22 17, 24 15, 24 11 C24 7, 20 4, 16 4 Z" 
        fill="url(#greenGradient)" stroke="#0C610A" stroke-width="0.5"/>
  
  <!-- Light rays -->
  <path d="M16 2 L16 5 M11 6 L12 8 M21 6 L20 8 M8 11 L5 11 M24 11 L27 11" 
        stroke="#FFEF16" stroke-width="1.5" stroke-linecap="round"/>
  
  <!-- Base threads -->
  <rect x="13" y="26" width="6" height="1" fill="#666"/>
  <rect x="13" y="28" width="6" height="1" fill="#666"/>
  <rect x="13" y="30" width="6" height="1" fill="#666"/>
</svg>
